<?xml version="1.0" encoding="utf-8"?>
<svg xmlns="http://www.w3.org/2000/svg" xmlns:xlink="http://www.w3.org/1999/xlink">

    <symbol xmlns="http://www.w3.org/2000/svg" viewBox="0 0 315 175" id="logo-white">
        <g fill="#fff"><path d="m188.49 99.59h-11.76v-3.13h4.14v-27.78h-4.19v-3.13h7.66v30.91h4.14v3.13z"/><path d="m203.05 100.27c-6.8 0-11.93-5.44-11.93-12.66s5.13-12.66 11.93-12.66 11.98 5.44 11.98 12.66-5.15 12.66-11.98 12.66zm0-22.08c-4.87 0-8.4 3.96-8.4 9.43s3.53 9.43 8.4 9.43 8.45-3.97 8.45-9.43-3.56-9.43-8.45-9.43zm27.99 32.32c-3.86 0-7.13-1.18-9.35-3.4l-.33-.33 2.29-2.3.33.28c1.95 1.67 4.39 2.52 7.25 2.52 1.39 0 8.31-.35 8.31-7.33v-4.2c-1.96 2.64-5.13 4.18-8.75 4.18-6.74 0-11.83-5.21-11.83-12.12s5.24-12.56 11.93-12.56c3.5 0 6.53 1.53 8.65 4.34v-4h7.76v3.13h-4.29v20.98c0 8.53-7.5 10.8-11.97 10.8zm-.11-32.13c-4.82 0-8.45 4.01-8.45 9.33s3.47 9.13 8.45 9.13 8.65-3.99 8.65-9.28-3.8-9.18-8.65-9.18zm32.39 21.21h-11.47v-3.13h4.05v-17.73h-4.05v-3.13h7.52v20.87h3.95v3.13zm-6.98-29.69c-1.31 0-2.42-1.13-2.42-2.47s1.09-2.42 2.42-2.42 2.47 1.11 2.47 2.42-1.13 2.47-2.47 2.47zm21.64 30.37c-6.87 0-11.86-5.22-11.86-12.41s4.96-12.61 11.54-12.61c2.68 0 5.1.94 6.79 2.67v-2.33h3.04v9.71h-3.04v-.47c0-4.17-3.44-6.35-6.7-6.35-4.78 0-8.11 3.78-8.11 9.18s3.34 9.38 8.3 9.38c3.36 0 5.9-1.76 7.43-5.23l.19-.42 2.89 1.24-.17.42c-1.78 4.52-5.67 7.22-10.3 7.22zm21.69-.34c-4.2 0-7.49-3.2-7.49-7.29 0-4.39 3.79-7.58 9-7.58 2.16 0 4.26.51 6.55 1.61v-4.61c0-2.89-1.91-4.36-5.67-4.36-3.38 0-5.51 1.17-6.69 3.68l-.17.35-2.83-.73.25-.52c1.88-3.87 4.77-5.53 9.63-5.53 7.79 0 8.95 4.39 8.95 7v14.5h3.8v3.13h-7.27v-2.8c-2.7 2.09-5.41 3.14-8.06 3.14zm1.95-12.04c-3.54 0-5.92 1.97-5.92 4.89 0 2.47 1.93 4.26 4.6 4.26 2.5 0 5.6-1.49 7.43-3.56v-3.75c-2.45-1.38-4.02-1.85-6.11-1.85zm-221.54 4.89c0 2.47 1.94 4.26 4.6 4.26 2.5 0 5.6-1.49 7.43-3.56v-3.75c-2.45-1.38-4.01-1.85-6.11-1.85-3.54 0-5.92 1.97-5.92 4.89zm33.7-14.79c-4.82 0-8.59 4.16-8.59 9.48s3.74 9.43 8.69 9.43 8.55-3.88 8.55-9.43-3.72-9.48-8.65-9.48z"/><path d="m165.7 99.59v-2.8c-2.7 2.09-5.41 3.14-8.06 3.14-4.2 0-7.49-3.2-7.49-7.29 0-4.39 3.79-7.59 9-7.59 2.16 0 4.26.51 6.55 1.61v-4.61c0-2.89-1.91-4.36-5.67-4.36-3.38 0-5.51 1.17-6.69 3.68l-.17.35-2.83-.73.25-.52c1.89-3.87 4.77-5.53 9.63-5.53 7.79 0 8.95 4.39 8.95 7v14.5h5c.31-3 .47-6.05.47-9.13 0-48.21-39.09-87.31-87.32-87.31s-87.32 39.1-87.32 87.32 39.1 87.32 87.32 87.32c44.06 0 80.5-32.64 86.46-75.06h-8.09zm-26.06-34.58c1.34 0 2.47 1.11 2.47 2.42s-1.13 2.47-2.47 2.47-2.42-1.13-2.42-2.47 1.08-2.42 2.42-2.42zm-65.29 13.63h-.98c-8.07-.01-9.7 3.34-9.7 8.74v9.09h4.73v3.13h-12.59v-3.13h4.39v-17.73h-4.39v-3.13h7.86v4.31c1.99-3.26 5.65-5.12 10.24-4.82l.44.03v3.52zm25.03 20.95h-7.28v-2.8c-2.7 2.09-5.41 3.14-8.06 3.14-4.2 0-7.49-3.2-7.49-7.29 0-4.39 3.79-7.59 9-7.59 2.16 0 4.26.51 6.55 1.61v-4.61c0-2.89-1.91-4.36-5.67-4.36-3.38 0-5.51 1.17-6.69 3.68l-.17.35-2.83-.73.25-.52c1.89-3.87 4.77-5.53 9.63-5.53 7.79 0 8.95 4.39 8.95 7v14.5h3.8v3.13zm30.67 0h-7.67v-3.64c-2.12 2.64-4.98 3.98-8.5 3.98-6.85 0-12.02-5.34-12.02-12.41s5.1-12.56 11.87-12.56c3.53 0 6.61 1.55 8.65 4.3v-10.58h-4.48v-3.13h7.96v30.91h4.19zm16 0h-11.47v-3.13h4.05v-17.73h-4.05v-3.13h7.52v20.87h3.95v3.13z"/><path d="m153.67 92.78c0 2.47 1.94 4.26 4.6 4.26 2.51 0 5.6-1.49 7.43-3.56v-3.75c-2.44-1.38-4.01-1.85-6.11-1.85-3.54 0-5.92 1.97-5.92 4.89z"/></g>
    </symbol>

    <symbol xmlns="http://www.w3.org/2000/svg" viewBox="0 0 315 175" id="logo-black">
        <g fill="none"><g fill="#000"><path d="m174.64 87.32c0 48.23-39.1 87.32-87.32 87.32s-87.32-39.09-87.32-87.32 39.1-87.32 87.32-87.32 87.32 39.1 87.32 87.32z"/><path d="m188.49 99.59h-11.76v-3.13h4.14v-27.78h-4.19v-3.13h7.66v30.91h4.14v3.13z"/><path d="m203.05 100.27c-6.8 0-11.93-5.44-11.93-12.66s5.13-12.66 11.93-12.66 11.98 5.44 11.98 12.66-5.15 12.66-11.98 12.66zm0-22.08c-4.87 0-8.4 3.96-8.4 9.43s3.53 9.43 8.4 9.43 8.45-3.97 8.45-9.43-3.56-9.43-8.45-9.43zm27.99 32.32c-3.86 0-7.13-1.18-9.35-3.4l-.33-.33 2.29-2.3.33.28c1.95 1.67 4.39 2.52 7.25 2.52 1.39 0 8.31-.35 8.31-7.33v-4.2c-1.96 2.64-5.13 4.18-8.75 4.18-6.74 0-11.83-5.21-11.83-12.12s5.24-12.56 11.93-12.56c3.5 0 6.53 1.53 8.65 4.34v-4h7.76v3.13h-4.29v20.98c0 8.53-7.5 10.8-11.97 10.8zm-.11-32.13c-4.82 0-8.45 4.01-8.45 9.33s3.47 9.13 8.45 9.13 8.65-3.99 8.65-9.28-3.8-9.18-8.65-9.18zm32.39 21.21h-11.47v-3.13h4.05v-17.73h-4.05v-3.13h7.52v20.87h3.95v3.13zm-6.98-29.69c-1.31 0-2.42-1.13-2.42-2.47s1.09-2.42 2.42-2.42 2.47 1.11 2.47 2.42-1.13 2.47-2.47 2.47zm21.64 30.37c-6.87 0-11.86-5.22-11.86-12.41s4.96-12.61 11.54-12.61c2.68 0 5.1.94 6.79 2.67v-2.33h3.04v9.71h-3.04v-.47c0-4.17-3.44-6.35-6.7-6.35-4.78 0-8.11 3.78-8.11 9.18s3.34 9.38 8.3 9.38c3.36 0 5.9-1.76 7.43-5.23l.19-.42 2.89 1.24-.17.42c-1.78 4.52-5.67 7.22-10.3 7.22zm21.69-.34c-4.2 0-7.49-3.2-7.49-7.29 0-4.39 3.79-7.58 9-7.58 2.16 0 4.26.51 6.55 1.61v-4.61c0-2.89-1.91-4.36-5.67-4.36-3.38 0-5.51 1.17-6.69 3.68l-.17.35-2.83-.73.25-.52c1.88-3.87 4.77-5.53 9.63-5.53 7.79 0 8.95 4.39 8.95 7v14.5h3.8v3.13h-7.27v-2.8c-2.7 2.09-5.41 3.14-8.06 3.14zm1.95-12.04c-3.54 0-5.92 1.97-5.92 4.89 0 2.47 1.93 4.26 4.6 4.26 2.5 0 5.6-1.49 7.43-3.56v-3.75c-2.45-1.38-4.02-1.85-6.11-1.85z"/></g><path d="m84.04 99.93c-4.2 0-7.49-3.2-7.49-7.29 0-4.39 3.79-7.58 9-7.58 2.16 0 4.26.51 6.55 1.61v-4.61c0-2.89-1.91-4.36-5.67-4.36-3.38 0-5.51 1.17-6.69 3.68l-.17.35-2.83-.73.25-.52c1.89-3.87 4.77-5.53 9.63-5.53 7.79 0 8.95 4.39 8.95 7v14.5h3.8v3.13h-7.28v-2.8c-2.7 2.09-5.41 3.14-8.06 3.14zm1.95-12.04c-3.54 0-5.92 1.97-5.92 4.89 0 2.47 1.94 4.26 4.6 4.26 2.5 0 5.6-1.49 7.43-3.56v-3.75c-2.45-1.38-4.01-1.85-6.11-1.85zm27.89 12.04c-6.85 0-12.02-5.34-12.02-12.41s5.1-12.56 11.87-12.56c3.53 0 6.61 1.55 8.65 4.3v-10.58h-4.48v-3.13h7.96v30.91h4.19v3.13h-7.67v-3.64c-2.12 2.64-4.98 3.98-8.5 3.98zm-.1-21.94c-4.82 0-8.59 4.16-8.59 9.48s3.74 9.43 8.69 9.43 8.55-3.88 8.55-9.43-3.72-9.48-8.65-9.48zm32.27 21.6h-11.47v-3.13h4.05v-17.73h-4.05v-3.13h7.52v20.87h3.95v3.13zm-6.41-29.69c-1.31 0-2.42-1.13-2.42-2.47s1.08-2.42 2.42-2.42 2.47 1.11 2.47 2.42-1.13 2.47-2.47 2.47zm-71.24 29.69h-12.59v-3.13h4.39v-17.73h-4.39v-3.13h7.86v4.31c1.99-3.26 5.65-5.12 10.24-4.82l.44.03v3.52h-.98c-8.07-.01-9.7 3.34-9.7 8.74v9.09h4.73v3.13z" fill="#fff"/><path d="m153.67 92.78c0 2.47 1.94 4.26 4.6 4.26 2.51 0 5.6-1.49 7.43-3.56v-3.75c-2.44-1.38-4.01-1.85-6.11-1.85-3.54 0-5.92 1.97-5.92 4.89z" fill="#000"/><path d="m169.17 96.46v-14.5c0-2.61-1.16-7-8.95-7-4.87 0-7.75 1.65-9.63 5.53l-.25.52 2.83.73.17-.35c1.19-2.51 3.31-3.68 6.69-3.68 3.76 0 5.67 1.47 5.67 4.36v4.61c-2.29-1.1-4.39-1.61-6.55-1.61-5.21 0-9 3.19-9 7.58 0 4.09 3.29 7.29 7.49 7.29 2.65 0 5.36-1.06 8.06-3.14v2.8h8.09c.15-1.04.29-2.08.38-3.13h-5zm-3.47-2.97c-1.83 2.07-4.92 3.56-7.43 3.56-2.67 0-4.6-1.79-4.6-4.26 0-2.93 2.38-4.89 5.92-4.89 2.1 0 3.67.47 6.11 1.85v3.75z" fill="#fff"/></g>
    </symbol>

    <symbol xmlns="http://www.w3.org/2000/svg" viewBox="0 0 80 80" id="ic-facebook">
        <path fill="#FFF" d="M39.996.037C17.922.037 0 17.96 0 40.033 0 60.07 14.759 76.63 34.035 79.553V50.64h-9.876V40.123h9.876v-6.996c0-11.596 5.641-16.679 15.28-16.679 4.599 0 7.04.357 8.201.476v9.162h-6.557c-4.078 0-5.522 3.878-5.522 8.24v5.76h11.96L55.76 50.602H45.4v28.996C64.92 76.956 80 60.24 80 40.004 79.993 17.922 62.07 0 39.996 0v.037z"/>
    </symbol>

    <symbol xmlns="http://www.w3.org/2000/svg" viewBox="0 0 80 80" id="ic-instagram">
        <path fill="#FFF" d="M71.11 0H8.89A8.862 8.862 0 0 0 0 8.89v62.22C0 76 3.958 80 8.89 80h62.22C76 80 80 76 80 71.11V8.89C80 3.958 76 0 71.11 0zM26.67 62.22H15.472V31.115H26.67V62.22zm-5.828-36.8c-3.421 0-5.736-2.265-5.736-5.334 0-3.069 2.265-5.333 6.09-5.333 3.42 0 5.735 2.264 5.735 5.333 0 3.07-2.265 5.334-6.089 5.334zm45.824 36.8H55.822V45.197c0-4.713-2.886-5.778-4-5.778-1.116 0-4.714.713-4.714 5.778v17.025H35.911V31.114h11.197v4.353c1.425-2.533 4.353-4.353 9.779-4.353 5.425 0 9.778 4.353 9.778 14.09v17.024-.007z"/>
    </symbol>

    <symbol xmlns="http://www.w3.org/2000/svg" viewBox="0 0 80 80" id="ic-x">
        <path fill="#FFF" d="M80 40c0 22.09-17.91 40-40 40S0 62.09 0 40 17.91 0 40 0s40 17.91 40 40zM23.697 21.48h4.632l27.863 36.841h-4.318l-28.177-36.84zm18.076 10.253L30.675 17.06H14.6l19.208 25.115L15.6 62.981h7.796l14.049-16.053 12.28 16.053h15.675l-20.02-26.468L62.398 17.06h-7.791L41.773 31.733z"/>
    </symbol>

    <symbol xmlns="http://www.w3.org/2000/svg" viewBox="0 0 59 75" id="ic-platform-1">
        <g fill="none"><path fill="#F36E21" d="M10.77 9.37v4.91c0 .75.52 1.41 1.25 1.59l5.93 1.46v4.59h3.28v-5.87c0-.75-.52-1.41-1.25-1.59L14.05 13V9.37a4.814 4.814 0 0 0 3.19-4.53c0-2.67-2.16-4.83-4.83-4.83S7.58 2.17 7.58 4.84c0 2.09 1.33 3.85 3.19 4.53zm29.83 7.96l5.93-1.46c.73-.18 1.25-.84 1.25-1.59V9.37a4.814 4.814 0 0 0 3.19-4.53c0-2.67-2.16-4.83-4.83-4.83s-4.83 2.16-4.83 4.83c0 2.09 1.33 3.85 3.19 4.53V13l-5.93 1.46c-.73.18-1.25.84-1.25 1.59v5.87h3.28v-4.59zM27.64 9.37v12.55h3.28V9.37a4.814 4.814 0 0 0 3.19-4.53c0-2.67-2.16-4.83-4.83-4.83s-4.83 2.16-4.83 4.83c0 2.09 1.33 3.85 3.19 4.53z"/><path fill="#BC2327" d="M10.79 38.17l3.68.54c.46 1.11.58 1.41 1.05 2.53l-2.22 2.99c-.59.8-.51 1.91.18 2.61l3.03 3.02c.7.7 1.81.78 2.61.18l2.98-2.22c1.11.46 1.41.58 2.54 1.05l.53 3.68c.14.98.99 1.71 1.98 1.71h4.27c.99 0 1.84-.73 1.97-1.71l.54-3.68c1.12-.47 1.42-.59 2.54-1.05l2.98 2.22c.8.59 1.91.51 2.61-.18l3.02-3.02c.7-.7.79-1.82.19-2.61l-2.23-2.99c.46-1.11.58-1.41 1.05-2.52l3.7-.54c.98-.14 1.71-.99 1.71-1.98v-3.74H36.96c.11.51.17 1.05.17 1.6 0 4.33-3.51 7.83-7.82 7.83-4.31 0-7.82-3.51-7.82-7.83 0-.55.06-1.09.16-1.6H9.11v3.74c0 .99.73 1.84 1.71 1.98l-.03-.01z"/><path fill="#F36E21" d="M55.02 25.03H3.53c-1.94 0-3.52 1.59-3.52 3.52v33.59c0 1.94 1.59 3.52 3.52 3.52h20.71l-.68 4.48c-.09.6-.61 1.05-1.22 1.05h-2.66c-.68 0-1.23.55-1.23 1.23v1.22c0 .68.55 1.23 1.23 1.23h19.18c.68 0 1.23-.55 1.23-1.23v-1.22c0-.68-.55-1.23-1.23-1.23H36.2c-.61 0-1.13-.44-1.22-1.05l-.68-4.48h20.71c1.94 0 3.52-1.59 3.52-3.52V28.56c0-1.94-1.59-3.52-3.52-3.52l.01-.01zM29.28 63.65a1.71 1.71 0 1 1-.002-3.418 1.71 1.71 0 0 1 .002 3.418zm25.12-5.43H4.15V29.17h50.24v29.05h.01z"/></g>
    </symbol>

    <symbol xmlns="http://www.w3.org/2000/svg" viewBox="0 0 63 55" id="ic-platform-2">
        <g fill="none"><path d="m61.65 25.91c-.65-.65-1.63-.65-2.28 0l-1.17 1.17v-.07c-.07-14.87-12.2-27.01-27.07-27.01-7.57 0-14.55 3-19.7 8.48-.26.33-.46.72-.46 1.11 0 .46.2.85.52 1.17.65.59 1.7.59 2.28-.07 4.5-4.83 10.7-7.5 17.29-7.5 13.11 0 23.81 10.7 23.81 23.81v.07l-1.17-1.17c-.65-.65-1.63-.65-2.28 0-.33.33-.46.72-.46 1.17s.13.85.46 1.17l3.98 3.98c.33.33.72.46 1.17.46s.85-.2 1.17-.46l3.98-3.98c.52-.72.52-1.76-.07-2.35zm-13.24 17.41c-4.5 4.83-10.63 7.5-17.29 7.5-13.11 0-23.81-10.7-23.81-23.81v-.07l1.17 1.17c.65.65 1.63.65 2.28 0s.65-1.63 0-2.28l-3.98-3.98c-.33-.33-.72-.46-1.17-.46s-.85.2-1.17.46l-3.98 3.98c-.33.33-.46.72-.46 1.17s.13.85.46 1.17c.65.65 1.63.65 2.28 0l1.17-1.17v.07c0 14.87 12.13 27.01 27.01 27.01 7.57 0 14.55-3 19.7-8.48.59-.65.59-1.7-.07-2.28-.52-.65-1.5-.65-2.15 0z" fill="#f36e21"/><path d="m15.4 23.49c-.85.07-1.44.85-1.44 1.7v3.65c0 .85.59 1.57 1.44 1.7l3.13.46c.46.91.52 1.17.85 2.15l-1.89 2.54c-.52.65-.46 1.63.2 2.22l2.54 2.54c.59.59 1.57.65 2.22.2l2.54-1.89c.91.46 1.17.52 2.15.85l.46 3.13c.07.85.85 1.44 1.7 1.44h3.65c.91.07 1.63-.59 1.7-1.44l.46-3.13c.91-.46 1.17-.52 2.15-.85l2.54 1.89c.65.52 1.63.46 2.22-.2l2.54-2.54c.59-.59.65-1.57.2-2.22l-1.89-2.54c.46-.91.52-1.17.85-2.15l3.13-.46c.85-.07 1.44-.85 1.44-1.7v-3.65c0-.85-.59-1.57-1.44-1.7l-3.13-.46c-.46-.91-.52-1.17-.85-2.15l1.89-2.54c.52-.65.46-1.63-.2-2.22l-2.54-2.54c-.59-.59-1.57-.65-2.22-.2l-2.61 1.89c-.91-.46-1.17-.52-2.15-.85l-.46-3.13c-.07-.85-.85-1.44-1.7-1.44h-3.65c-.85 0-1.57.59-1.7 1.44l-.46 3.13c-.91.46-1.17.52-2.15.85l-2.54-1.89c-.65-.52-1.63-.46-2.22.2l-2.54 2.54c-.59.59-.65 1.57-.2 2.22l1.89 2.54c-.46.91-.52 1.17-.85 2.15l-3.07.46zm15.86-4.56c4.44 0 8.15 3.65 8.15 8.15s-3.65 8.15-8.15 8.15-8.15-3.65-8.15-8.15 3.65-8.15 8.15-8.15z" fill="#bc2327"/><path d="m29.43 31.58 6.46-3.65c.72-.39.72-1.44 0-1.83l-6.46-3.65c-.72-.39-1.57.13-1.57.91v7.24c0 .85.85 1.37 1.57.98z" fill="#f36e21"/></g>
    </symbol>

    <symbol xmlns="http://www.w3.org/2000/svg" viewBox="0 0 70 57" id="ic-platform-3">
        <g fill="none"><path fill="#F36E21" d="M59.5 41.06c-4.94 7.09-13.34 10.56-21.75 9.14l1.58-.97c.68-.42.9-1.31.48-2-.42-.68-1.31-.9-2-.48l-4.65 2.84c-.33.2-.56.52-.65.9-.09.37-.03.77.17 1.1l2.84 4.64c.27.45.75.69 1.24.69.26 0 .52-.07.76-.21.68-.42.9-1.31.48-2l-1.04-1.7c1.51.28 3.03.41 4.53.41 8.03 0 15.63-3.87 20.39-10.71.46-.66.3-1.56-.36-2.02-.66-.46-1.56-.3-2.02.36v.01zM22.12 16.49c.46 0 .91-.22 1.19-.62 4.94-7.09 13.35-10.56 21.75-9.13l-1.58.97c-.68.42-.9 1.31-.48 2 .27.45.75.69 1.24.69.26 0 .52-.07.76-.21l4.65-2.84c.33-.2.56-.52.65-.9.09-.37.03-.77-.17-1.1L47.29.71c-.42-.68-1.31-.9-2-.48-.68.42-.9 1.31-.48 2l1.05 1.72c-9.61-1.76-19.28 2.17-24.93 10.28-.46.66-.3 1.56.36 2.02.25.18.54.26.83.26v-.02zm47.52 15.86c-.42-.68-1.31-.9-2-.48l-1.72 1.05c1.76-9.62-2.17-19.28-10.28-24.93-.66-.46-1.56-.3-2.02.36-.46.66-.3 1.56.36 2.02 7.09 4.94 10.57 13.34 9.14 21.75l-.97-1.58c-.42-.68-1.31-.9-2-.48-.68.42-.9 1.31-.48 2l2.84 4.65c.2.33.52.56.9.65.11.03.23.04.34.04.27 0 .53-.07.76-.21l4.64-2.84c.68-.42.9-1.31.48-2h.01z"/><path fill="#BC2327" d="M33.85 40.34l2.22-1.65c.83.34 1.05.44 1.88.78l.4 2.74c.11.73.73 1.27 1.47 1.27H43c.74 0 1.36-.54 1.47-1.27l.4-2.74c.83-.34 1.05-.44 1.88-.78l2.22 1.65c.59.44 1.42.38 1.94-.14l2.25-2.24c.52-.52.58-1.35.14-1.94l-1.66-2.22c.34-.83.43-1.05.78-1.88l2.75-.4c.73-.11 1.27-.73 1.27-1.47v-3.18c0-.74-.54-1.36-1.27-1.47l-2.74-.4c-.34-.83-.44-1.05-.78-1.88l1.65-2.22c.44-.59.38-1.42-.14-1.94l-2.25-2.25a1.49 1.49 0 0 0-1.94-.14l-2.22 1.65c-.83-.35-1.05-.44-1.88-.78l-.4-2.74c-.11-.73-.73-1.27-1.47-1.27h-3.18c-.74 0-1.36.54-1.47 1.27l-.4 2.74c-.83.34-1.05.43-1.88.78l-2.22-1.65a1.49 1.49 0 0 0-1.94.14l-2.25 2.25a1.49 1.49 0 0 0-.14 1.94l1.65 2.22c-.34.83-.44 1.05-.78 1.88l-2.74.4c-.73.11-1.27.73-1.27 1.47v3.18c0 .74.54 1.36 1.27 1.47l2.74.4c.34.83.44 1.05.78 1.88l-1.65 2.22c-.44.59-.38 1.42.14 1.94l2.25 2.24c.52.52 1.35.58 1.94.14zm7.55-17.4c3.05 0 5.52 2.47 5.52 5.52 0 3.05-2.47 5.52-5.52 5.52-3.05 0-5.52-2.47-5.52-5.52 0-3.05 2.47-5.52 5.52-5.52z"/><path fill="#F36E21" d="M27.17 43.25c-1.15-3.24-3.6-5.73-6.62-7.07-1.86 1.3-4.13 2.05-6.54 2.05s-4.68-.75-6.54-2.03a12.141 12.141 0 0 0-6.62 7.05C.3 44.83.02 46.49.02 48.16v2.14c0 1.04.85 1.89 1.89 1.89h24.21c1.04 0 1.89-.85 1.89-1.89v-2.17c0-1.65-.28-3.29-.82-4.85v-.03h-.02zM14 34.37c4.26 0 7.74-3.46 7.74-7.73 0-4.27-3.48-7.72-7.74-7.72s-7.74 3.46-7.74 7.72 3.48 7.73 7.74 7.73z"/></g>
    </symbol>

    <symbol xmlns="http://www.w3.org/2000/svg" viewBox="0 0 58 58" id="ic-platform-4">
        <g fill="none" transform="translate(.01 .01)"><path d="m55.96 47.96-13.45-11.4c2.6-3.76 4.13-8.32 4.13-13.23 0-12.87-10.46-23.33-23.32-23.33s-23.32 10.46-23.32 23.32 10.46 23.32 23.32 23.32c4.91 0 9.47-1.53 13.23-4.13l11.4 13.45c2.15 2.53 6 2.69 8.34.34 2.35-2.35 2.19-6.2-.34-8.34zm-52.07-24.64c0-10.71 8.72-19.43 19.43-19.43s19.43 8.72 19.43 19.43-8.72 19.43-19.43 19.43-19.43-8.72-19.43-19.43z" fill="#f36e21"/><g fill="#bc2327"><path d="m17.68 18.68c0-.39-.32-.7-.7-.7h-4.28c-.39 0-.71.32-.71.7v10.33h5.69zm8.49-8.36c0-.39-.32-.7-.7-.7h-4.28c-.39 0-.7.32-.7.7v18.7h5.69v-18.7zm8.48 4.58c0-.39-.32-.7-.7-.7h-4.28c-.39 0-.7.32-.7.7v14.11h5.69v-14.11z"/><rect height="2.39" rx=".7" width="27.29" x="9.67" y="30.4"/></g></g>
    </symbol>

    <symbol xmlns="http://www.w3.org/2000/svg" viewBox="0 0 63 70" id="ic-platform-5">
        <g fill="none" transform="translate(.01 .01)"><path fill="#BC2327" transform="rotate(-45 47.605 54.822)" d="M38.08 50.772H57.129999999999995V58.872H38.08z"/><path fill="#BC2327" d="M34.47 62.23c-.16.16-.28.37-.33.59l-1.18 5.2c-.2.87.58 1.65 1.45 1.45l5.19-1.18c.22-.05.43-.16.59-.33l1.57-1.57-5.73-5.73-1.57 1.57h.01zm27.39-17.65l-4.01-4.01c-.47-.47-1.24-.47-1.72 0l-2.68 2.68 5.73 5.73 2.68-2.68c.47-.47.47-1.24 0-1.72z"/><path fill="#F36E21" d="M48.03 43.85V2.95c0-1.62-1.32-2.95-2.95-2.95H2.95C1.32 0 0 1.32 0 2.95v50.17c0 1.58 1.32 2.91 2.95 2.91h32.91l12.18-12.18h-.01zM20.26 9.87h16.62c.94 0 1.71.77 1.71 1.71s-.77 1.71-1.71 1.71H20.26c-.94 0-1.71-.77-1.71-1.71s.77-1.71 1.71-1.71zm0 10.94h16.62c.94 0 1.71.77 1.71 1.71s-.77 1.71-1.71 1.71H20.26c-.94 0-1.71-.77-1.71-1.71s.77-1.71 1.71-1.71zm0 10.99h16.62c.94 0 1.71.77 1.71 1.71s-.77 1.71-1.71 1.71H20.26c-.94 0-1.71-.77-1.71-1.71s.77-1.71 1.71-1.71zm-7.87 14.4h-1.24c-.94 0-1.71-.77-1.71-1.71s.77-1.71 1.71-1.71h1.24c.94 0 1.71.77 1.71 1.71s-.77 1.71-1.71 1.71zm0-10.99h-1.24c-.94 0-1.71-.77-1.71-1.71s.77-1.71 1.71-1.71h1.24c.94 0 1.71.77 1.71 1.71s-.77 1.71-1.71 1.71zm0-10.98h-1.24c-.94 0-1.71-.77-1.71-1.71s.77-1.71 1.71-1.71h1.24c.94 0 1.71.77 1.71 1.71s-.77 1.71-1.71 1.71zm0-10.94h-1.24c-.94 0-1.71-.77-1.71-1.71s.77-1.71 1.71-1.71h1.24c.94 0 1.71.77 1.71 1.71s-.77 1.71-1.71 1.71zm6.16 31.2c0-.94.77-1.71 1.71-1.71h16.62c.94 0 1.71.77 1.71 1.71s-.77 1.71-1.71 1.71H20.26c-.94 0-1.71-.77-1.71-1.71z"/></g>
    </symbol>

    <symbol xmlns="http://www.w3.org/2000/svg" viewBox="0 0 61 49" id="ic-platform-6">
       <g fill="none" transform="translate(.01 .01)"><path fill="#F36E21" d="M8.17 22.42c-.34.99-.52 2.02-.52 3.07v1.34c0 .65.53 1.18 1.18 1.18h15.14c.65 0 1.18-.53 1.18-1.18v-1.35c0-1.03-.17-2.06-.51-3.03v-.02c-.73-2.03-2.26-3.58-4.15-4.42a7.14 7.14 0 0 1-4.09 1.28 7.23 7.23 0 0 1-4.09-1.27c-1.9.82-3.42 2.39-4.14 4.41v-.01zm8.23-5.55c2.66 0 4.84-2.16 4.84-4.83s-2.17-4.82-4.84-4.82-4.84 2.16-4.84 4.82 2.17 4.83 4.84 4.83z"/><path fill="#BC2327" d="M29.94 25.57c-.67 0-1.22.55-1.22 1.22 0 .67.55 1.22 1.22 1.22H41.7c.67 0 1.22-.55 1.22-1.22 0-.67-.55-1.22-1.22-1.22H29.94zm18.65-4.55c0-.67-.55-1.22-1.22-1.22H29.93c-.67 0-1.22.55-1.22 1.22 0 .67.55 1.22 1.22 1.22h17.44c.67 0 1.22-.55 1.22-1.22z"/><path fill="#F36E21" d="M44.03 32.25H4.59c-.85 0-1.57-.7-1.57-1.55V4.61c0-.85.71-1.55 1.57-1.55h46.96c.85 0 1.55.7 1.55 1.55v23.64l3.04 1.58V4.61c0-2.53-2.06-4.61-4.59-4.61H4.59C2.05 0 0 2.08 0 4.61v31.33a4.59 4.59 0 0 0 4.59 4.59h18.79l-.85 5.37H19.4a1.52 1.52 0 1 0 0 3.04h17.35a1.52 1.52 0 1 0 0-3.04h-3.14l-.85-5.37h13.16l-1.89-8.29v.01z"/><path fill="#BC2327" d="M60.24 35.45l-12.39-6.44a.815.815 0 0 0-1.17.91l3.13 13.61c.16.69 1.06.86 1.46.28l2.2-3.17 3.62 4.68c.28.36.79.42 1.14.15L60 44.1c.36-.28.42-.79.15-1.14l-3.62-4.68 3.62-1.33c.66-.24.72-1.16.09-1.49v-.01z"/><rect width="19.88" height="9.25" x="28.72" y="7.22" fill="#BC2327" rx="1.71"/></g>
    </symbol>

</svg>