<?xml version="1.0" encoding="utf-8"?>
<svg xmlns="http://www.w3.org/2000/svg" xmlns:xlink="http://www.w3.org/1999/xlink">

    <symbol xmlns="http://www.w3.org/2000/svg" viewBox="0 0 315 175" id="logo-white">
        <g fill="#fff"><path d="m188.49 99.59h-11.76v-3.13h4.14v-27.78h-4.19v-3.13h7.66v30.91h4.14v3.13z"/><path d="m203.05 100.27c-6.8 0-11.93-5.44-11.93-12.66s5.13-12.66 11.93-12.66 11.98 5.44 11.98 12.66-5.15 12.66-11.98 12.66zm0-22.08c-4.87 0-8.4 3.96-8.4 9.43s3.53 9.43 8.4 9.43 8.45-3.97 8.45-9.43-3.56-9.43-8.45-9.43zm27.99 32.32c-3.86 0-7.13-1.18-9.35-3.4l-.33-.33 2.29-2.3.33.28c1.95 1.67 4.39 2.52 7.25 2.52 1.39 0 8.31-.35 8.31-7.33v-4.2c-1.96 2.64-5.13 4.18-8.75 4.18-6.74 0-11.83-5.21-11.83-12.12s5.24-12.56 11.93-12.56c3.5 0 6.53 1.53 8.65 4.34v-4h7.76v3.13h-4.29v20.98c0 8.53-7.5 10.8-11.97 10.8zm-.11-32.13c-4.82 0-8.45 4.01-8.45 9.33s3.47 9.13 8.45 9.13 8.65-3.99 8.65-9.28-3.8-9.18-8.65-9.18zm32.39 21.21h-11.47v-3.13h4.05v-17.73h-4.05v-3.13h7.52v20.87h3.95v3.13zm-6.98-29.69c-1.31 0-2.42-1.13-2.42-2.47s1.09-2.42 2.42-2.42 2.47 1.11 2.47 2.42-1.13 2.47-2.47 2.47zm21.64 30.37c-6.87 0-11.86-5.22-11.86-12.41s4.96-12.61 11.54-12.61c2.68 0 5.1.94 6.79 2.67v-2.33h3.04v9.71h-3.04v-.47c0-4.17-3.44-6.35-6.7-6.35-4.78 0-8.11 3.78-8.11 9.18s3.34 9.38 8.3 9.38c3.36 0 5.9-1.76 7.43-5.23l.19-.42 2.89 1.24-.17.42c-1.78 4.52-5.67 7.22-10.3 7.22zm21.69-.34c-4.2 0-7.49-3.2-7.49-7.29 0-4.39 3.79-7.58 9-7.58 2.16 0 4.26.51 6.55 1.61v-4.61c0-2.89-1.91-4.36-5.67-4.36-3.38 0-5.51 1.17-6.69 3.68l-.17.35-2.83-.73.25-.52c1.88-3.87 4.77-5.53 9.63-5.53 7.79 0 8.95 4.39 8.95 7v14.5h3.8v3.13h-7.27v-2.8c-2.7 2.09-5.41 3.14-8.06 3.14zm1.95-12.04c-3.54 0-5.92 1.97-5.92 4.89 0 2.47 1.93 4.26 4.6 4.26 2.5 0 5.6-1.49 7.43-3.56v-3.75c-2.45-1.38-4.02-1.85-6.11-1.85zm-221.54 4.89c0 2.47 1.94 4.26 4.6 4.26 2.5 0 5.6-1.49 7.43-3.56v-3.75c-2.45-1.38-4.01-1.85-6.11-1.85-3.54 0-5.92 1.97-5.92 4.89zm33.7-14.79c-4.82 0-8.59 4.16-8.59 9.48s3.74 9.43 8.69 9.43 8.55-3.88 8.55-9.43-3.72-9.48-8.65-9.48z"/><path d="m165.7 99.59v-2.8c-2.7 2.09-5.41 3.14-8.06 3.14-4.2 0-7.49-3.2-7.49-7.29 0-4.39 3.79-7.59 9-7.59 2.16 0 4.26.51 6.55 1.61v-4.61c0-2.89-1.91-4.36-5.67-4.36-3.38 0-5.51 1.17-6.69 3.68l-.17.35-2.83-.73.25-.52c1.89-3.87 4.77-5.53 9.63-5.53 7.79 0 8.95 4.39 8.95 7v14.5h5c.31-3 .47-6.05.47-9.13 0-48.21-39.09-87.31-87.32-87.31s-87.32 39.1-87.32 87.32 39.1 87.32 87.32 87.32c44.06 0 80.5-32.64 86.46-75.06h-8.09zm-26.06-34.58c1.34 0 2.47 1.11 2.47 2.42s-1.13 2.47-2.47 2.47-2.42-1.13-2.42-2.47 1.08-2.42 2.42-2.42zm-65.29 13.63h-.98c-8.07-.01-9.7 3.34-9.7 8.74v9.09h4.73v3.13h-12.59v-3.13h4.39v-17.73h-4.39v-3.13h7.86v4.31c1.99-3.26 5.65-5.12 10.24-4.82l.44.03v3.52zm25.03 20.95h-7.28v-2.8c-2.7 2.09-5.41 3.14-8.06 3.14-4.2 0-7.49-3.2-7.49-7.29 0-4.39 3.79-7.59 9-7.59 2.16 0 4.26.51 6.55 1.61v-4.61c0-2.89-1.91-4.36-5.67-4.36-3.38 0-5.51 1.17-6.69 3.68l-.17.35-2.83-.73.25-.52c1.89-3.87 4.77-5.53 9.63-5.53 7.79 0 8.95 4.39 8.95 7v14.5h3.8v3.13zm30.67 0h-7.67v-3.64c-2.12 2.64-4.98 3.98-8.5 3.98-6.85 0-12.02-5.34-12.02-12.41s5.1-12.56 11.87-12.56c3.53 0 6.61 1.55 8.65 4.3v-10.58h-4.48v-3.13h7.96v30.91h4.19zm16 0h-11.47v-3.13h4.05v-17.73h-4.05v-3.13h7.52v20.87h3.95v3.13z"/><path d="m153.67 92.78c0 2.47 1.94 4.26 4.6 4.26 2.51 0 5.6-1.49 7.43-3.56v-3.75c-2.44-1.38-4.01-1.85-6.11-1.85-3.54 0-5.92 1.97-5.92 4.89z"/></g>
    </symbol>

    <symbol xmlns="http://www.w3.org/2000/svg" viewBox="0 0 315 175" id="logo-black">
        <g fill="none"><g fill="#000"><path d="m174.64 87.32c0 48.23-39.1 87.32-87.32 87.32s-87.32-39.09-87.32-87.32 39.1-87.32 87.32-87.32 87.32 39.1 87.32 87.32z"/><path d="m188.49 99.59h-11.76v-3.13h4.14v-27.78h-4.19v-3.13h7.66v30.91h4.14v3.13z"/><path d="m203.05 100.27c-6.8 0-11.93-5.44-11.93-12.66s5.13-12.66 11.93-12.66 11.98 5.44 11.98 12.66-5.15 12.66-11.98 12.66zm0-22.08c-4.87 0-8.4 3.96-8.4 9.43s3.53 9.43 8.4 9.43 8.45-3.97 8.45-9.43-3.56-9.43-8.45-9.43zm27.99 32.32c-3.86 0-7.13-1.18-9.35-3.4l-.33-.33 2.29-2.3.33.28c1.95 1.67 4.39 2.52 7.25 2.52 1.39 0 8.31-.35 8.31-7.33v-4.2c-1.96 2.64-5.13 4.18-8.75 4.18-6.74 0-11.83-5.21-11.83-12.12s5.24-12.56 11.93-12.56c3.5 0 6.53 1.53 8.65 4.34v-4h7.76v3.13h-4.29v20.98c0 8.53-7.5 10.8-11.97 10.8zm-.11-32.13c-4.82 0-8.45 4.01-8.45 9.33s3.47 9.13 8.45 9.13 8.65-3.99 8.65-9.28-3.8-9.18-8.65-9.18zm32.39 21.21h-11.47v-3.13h4.05v-17.73h-4.05v-3.13h7.52v20.87h3.95v3.13zm-6.98-29.69c-1.31 0-2.42-1.13-2.42-2.47s1.09-2.42 2.42-2.42 2.47 1.11 2.47 2.42-1.13 2.47-2.47 2.47zm21.64 30.37c-6.87 0-11.86-5.22-11.86-12.41s4.96-12.61 11.54-12.61c2.68 0 5.1.94 6.79 2.67v-2.33h3.04v9.71h-3.04v-.47c0-4.17-3.44-6.35-6.7-6.35-4.78 0-8.11 3.78-8.11 9.18s3.34 9.38 8.3 9.38c3.36 0 5.9-1.76 7.43-5.23l.19-.42 2.89 1.24-.17.42c-1.78 4.52-5.67 7.22-10.3 7.22zm21.69-.34c-4.2 0-7.49-3.2-7.49-7.29 0-4.39 3.79-7.58 9-7.58 2.16 0 4.26.51 6.55 1.61v-4.61c0-2.89-1.91-4.36-5.67-4.36-3.38 0-5.51 1.17-6.69 3.68l-.17.35-2.83-.73.25-.52c1.88-3.87 4.77-5.53 9.63-5.53 7.79 0 8.95 4.39 8.95 7v14.5h3.8v3.13h-7.27v-2.8c-2.7 2.09-5.41 3.14-8.06 3.14zm1.95-12.04c-3.54 0-5.92 1.97-5.92 4.89 0 2.47 1.93 4.26 4.6 4.26 2.5 0 5.6-1.49 7.43-3.56v-3.75c-2.45-1.38-4.02-1.85-6.11-1.85z"/></g><path d="m84.04 99.93c-4.2 0-7.49-3.2-7.49-7.29 0-4.39 3.79-7.58 9-7.58 2.16 0 4.26.51 6.55 1.61v-4.61c0-2.89-1.91-4.36-5.67-4.36-3.38 0-5.51 1.17-6.69 3.68l-.17.35-2.83-.73.25-.52c1.89-3.87 4.77-5.53 9.63-5.53 7.79 0 8.95 4.39 8.95 7v14.5h3.8v3.13h-7.28v-2.8c-2.7 2.09-5.41 3.14-8.06 3.14zm1.95-12.04c-3.54 0-5.92 1.97-5.92 4.89 0 2.47 1.94 4.26 4.6 4.26 2.5 0 5.6-1.49 7.43-3.56v-3.75c-2.45-1.38-4.01-1.85-6.11-1.85zm27.89 12.04c-6.85 0-12.02-5.34-12.02-12.41s5.1-12.56 11.87-12.56c3.53 0 6.61 1.55 8.65 4.3v-10.58h-4.48v-3.13h7.96v30.91h4.19v3.13h-7.67v-3.64c-2.12 2.64-4.98 3.98-8.5 3.98zm-.1-21.94c-4.82 0-8.59 4.16-8.59 9.48s3.74 9.43 8.69 9.43 8.55-3.88 8.55-9.43-3.72-9.48-8.65-9.48zm32.27 21.6h-11.47v-3.13h4.05v-17.73h-4.05v-3.13h7.52v20.87h3.95v3.13zm-6.41-29.69c-1.31 0-2.42-1.13-2.42-2.47s1.08-2.42 2.42-2.42 2.47 1.11 2.47 2.42-1.13 2.47-2.47 2.47zm-71.24 29.69h-12.59v-3.13h4.39v-17.73h-4.39v-3.13h7.86v4.31c1.99-3.26 5.65-5.12 10.24-4.82l.44.03v3.52h-.98c-8.07-.01-9.7 3.34-9.7 8.74v9.09h4.73v3.13z" fill="#fff"/><path d="m153.67 92.78c0 2.47 1.94 4.26 4.6 4.26 2.51 0 5.6-1.49 7.43-3.56v-3.75c-2.44-1.38-4.01-1.85-6.11-1.85-3.54 0-5.92 1.97-5.92 4.89z" fill="#000"/><path d="m169.17 96.46v-14.5c0-2.61-1.16-7-8.95-7-4.87 0-7.75 1.65-9.63 5.53l-.25.52 2.83.73.17-.35c1.19-2.51 3.31-3.68 6.69-3.68 3.76 0 5.67 1.47 5.67 4.36v4.61c-2.29-1.1-4.39-1.61-6.55-1.61-5.21 0-9 3.19-9 7.58 0 4.09 3.29 7.29 7.49 7.29 2.65 0 5.36-1.06 8.06-3.14v2.8h8.09c.15-1.04.29-2.08.38-3.13h-5zm-3.47-2.97c-1.83 2.07-4.92 3.56-7.43 3.56-2.67 0-4.6-1.79-4.6-4.26 0-2.93 2.38-4.89 5.92-4.89 2.1 0 3.67.47 6.11 1.85v3.75z" fill="#fff"/></g>
    </symbol>

    <symbol xmlns="http://www.w3.org/2000/svg" viewBox="0 0 80 80" id="ic-facebook">
        <path fill="#FFF" d="M39.996.037C17.922.037 0 17.96 0 40.033 0 60.07 14.759 76.63 34.035 79.553V50.64h-9.876V40.123h9.876v-6.996c0-11.596 5.641-16.679 15.28-16.679 4.599 0 7.04.357 8.201.476v9.162h-6.557c-4.078 0-5.522 3.878-5.522 8.24v5.76h11.96L55.76 50.602H45.4v28.996C64.92 76.956 80 60.24 80 40.004 79.993 17.922 62.07 0 39.996 0v.037z"/>
    </symbol>

    <symbol xmlns="http://www.w3.org/2000/svg" viewBox="0 0 80 80" id="ic-instagram">
        <path fill="#FFF" d="M71.11 0H8.89A8.862 8.862 0 0 0 0 8.89v62.22C0 76 3.958 80 8.89 80h62.22C76 80 80 76 80 71.11V8.89C80 3.958 76 0 71.11 0zM26.67 62.22H15.472V31.115H26.67V62.22zm-5.828-36.8c-3.421 0-5.736-2.265-5.736-5.334 0-3.069 2.265-5.333 6.09-5.333 3.42 0 5.735 2.264 5.735 5.333 0 3.07-2.265 5.334-6.089 5.334zm45.824 36.8H55.822V45.197c0-4.713-2.886-5.778-4-5.778-1.116 0-4.714.713-4.714 5.778v17.025H35.911V31.114h11.197v4.353c1.425-2.533 4.353-4.353 9.779-4.353 5.425 0 9.778 4.353 9.778 14.09v17.024-.007z"/>
    </symbol>

    <symbol xmlns="http://www.w3.org/2000/svg" viewBox="0 0 80 80" id="ic-x">
        <path fill="#FFF" d="M80 40c0 22.09-17.91 40-40 40S0 62.09 0 40 17.91 0 40 0s40 17.91 40 40zM23.697 21.48h4.632l27.863 36.841h-4.318l-28.177-36.84zm18.076 10.253L30.675 17.06H14.6l19.208 25.115L15.6 62.981h7.796l14.049-16.053 12.28 16.053h15.675l-20.02-26.468L62.398 17.06h-7.791L41.773 31.733z"/>
    </symbol>

</svg>